<?xml version="1.0" encoding="UTF-8" standalone="no"?>
<svg
   viewBox="0 0 897.71104 560.844"
   height="560.84399"
   width="897.71106"
   xml:space="preserve"
   id="svg2"
   version="1.1"
   sodipodi:docname="osfk-logo.svg"
   xmlns:inkscape="http://www.inkscape.org/namespaces/inkscape"
   xmlns:sodipodi="http://sodipodi.sourceforge.net/DTD/sodipodi-0.dtd"
   xmlns="http://www.w3.org/2000/svg"
   xmlns:svg="http://www.w3.org/2000/svg"
   xmlns:rdf="http://www.w3.org/1999/02/22-rdf-syntax-ns#"
   xmlns:cc="http://creativecommons.org/ns#"
   xmlns:dc="http://purl.org/dc/elements/1.1/"><sodipodi:namedview
     id="namedview1"
     pagecolor="#ffffff"
     bordercolor="#000000"
     borderopacity="0.25"
     inkscape:showpageshadow="2"
     inkscape:pageopacity="0.0"
     inkscape:pagecheckerboard="0"
     inkscape:deskcolor="#d1d1d1" /><metadata
     id="metadata8"><rdf:RDF><cc:Work
         rdf:about=""><dc:format>image/svg+xml</dc:format><dc:type
           rdf:resource="http://purl.org/dc/dcmitype/StillImage" /></cc:Work></rdf:RDF></metadata><defs
     id="defs6"><clipPath
       id="clipPath18"
       clipPathUnits="userSpaceOnUse"><path
         id="path16"
         d="M 0,595.28 H 841.89 V 0 H 0 Z" /></clipPath></defs><g
     transform="matrix(1.3333333,0,0,-1.3333333,-113.44136,677.37718)"
     id="g10"><g
       id="g12"><g
         clip-path="url(#clipPath18)"
         id="g14"><g
           transform="translate(756.4229,346.2607)"
           id="g20"><path
             id="path22"
             style="fill:#e5c900;fill-opacity:1;fill-rule:nonzero;stroke:none"
             d="m 0,0 c -0.703,2.307 -2.83,3.884 -5.241,3.884 0,0 -114.959,-0.04 -157.292,-0.102 -21.002,69.195 -82.579,120.74 -157.039,126.94 l 1.011,13.213 c 0,8.913 -7.228,16.139 -16.139,16.139 -8.914,0 -16.139,-7.226 -16.139,-16.139 l 1.009,-13.214 C -424.29,124.52 -485.865,72.977 -506.869,3.782 c -42.33,0.062 -157.29,0.102 -157.29,0.102 -2.411,0 -4.539,-1.577 -5.242,-3.884 -0.702,-2.307 0.188,-4.802 2.191,-6.145 l 98.383,-65.976 c 0.904,-0.606 1.965,-0.928 3.051,-0.928 l 49.016,-0.004 c 0.004,0 1.53,0.016 3.812,0.04 11.266,-82.86 78.945,-147.78 163.084,-154.804 l -0.975,-13.206 c 0,-8.915 7.225,-16.14 16.139,-16.14 8.911,0 16.139,7.225 16.139,16.14 l -0.976,13.206 c 84.135,7.022 151.817,71.94 163.085,154.804 2.281,-0.024 3.808,-0.04 3.811,-0.04 l 49.015,0.004 c 1.087,0 2.148,0.322 3.052,0.928 L -2.19,-6.145 C -0.188,-4.802 0.702,-2.307 0,0" /></g><g
           transform="translate(302.5479,336.2529)"
           id="g24"><path
             id="path26"
             style="fill:#b5100e;fill-opacity:1;fill-rule:nonzero;stroke:none"
             d="m 0,0 c 5.168,-5.235 8.476,-11.907 11.032,-19.787 8.341,48.454 48.448,86.037 98.113,90.538 0.644,0.059 1.289,0.113 1.935,0.16 l -6.345,83.095 c 0.035,7.933 6.498,14.377 14.44,14.377 7.94,0 14.405,-6.444 14.439,-14.377 l -6.345,-83.095 c 0.637,-0.046 1.276,-0.099 1.911,-0.156 49.675,-4.49 89.796,-42.079 98.136,-90.542 2.556,7.88 5.865,14.552 11.034,19.787 9.218,9.339 21.845,13.005 37.583,13.745 0.047,0.011 2.718,0.021 7.353,0.031 -1.584,4.968 -3.399,9.875 -5.444,14.714 -8.672,20.503 -21.091,38.919 -36.906,54.736 -15.815,15.816 -34.232,28.232 -54.736,36.905 -16.246,6.871 -33.271,11.14 -50.79,12.768 l 1.598,20.914 0.004,0.13 c 0,9.835 -8.002,17.837 -17.837,17.837 -9.836,0 -17.837,-8.002 -17.837,-17.837 v -0.065 l 1.601,-20.979 C 85.421,131.27 68.396,127.002 52.151,120.131 31.647,111.458 13.23,99.042 -2.586,83.226 -18.402,67.409 -30.819,48.993 -39.492,28.49 c -2.047,-4.839 -3.861,-9.746 -5.445,-14.714 4.636,-0.01 7.305,-0.02 7.353,-0.031 C -21.846,13.005 -9.219,9.339 0,0" /></g><g
           transform="translate(591.667,273.3359)"
           id="g28"><path
             id="path30"
             style="fill:#b5100e;fill-opacity:1;fill-rule:nonzero;stroke:none"
             d="m 0,0 c -6.647,-5.019 -18.539,-11.704 -28.985,-16.754 -11.702,-5.659 -29.686,-9.564 -44.162,-10.611 -16.749,-31.268 -48.196,-53.473 -85.107,-57.383 v 0.002 c -1.123,-0.119 -2.251,-0.225 -3.385,-0.309 l 6.134,-83.107 c -0.033,-7.934 -6.498,-14.379 -14.439,-14.379 -7.943,0 -14.407,6.445 -14.44,14.379 l 6.132,83.106 c -1.133,0.085 -2.26,0.193 -3.384,0.311 v -0.003 c -36.911,3.911 -68.355,26.117 -85.103,57.383 -14.477,1.045 -32.463,4.952 -44.164,10.611 -10.447,5.05 -22.338,11.735 -28.986,16.754 -0.181,-0.001 -0.362,-0.003 -0.544,-0.005 2.07,-14.654 6.021,-28.923 11.822,-42.64 8.673,-20.504 21.09,-38.919 36.906,-54.737 15.816,-15.817 34.233,-28.233 54.737,-36.906 16.229,-6.863 33.236,-11.129 50.735,-12.764 l -1.544,-20.924 -0.004,-0.123 c 0,-9.837 8.001,-17.837 17.837,-17.837 9.835,0 17.837,8 17.837,17.837 v 0.061 l -1.55,20.986 c 17.502,1.634 34.508,5.901 50.738,12.764 20.504,8.672 38.921,21.089 54.735,36.906 15.816,15.818 28.235,34.233 36.907,54.737 5.799,13.717 9.75,27.986 11.821,42.64 C 0.363,-0.003 0.181,-0.001 0,0" /></g><g
           transform="translate(326.5107,427.2354)"
           id="g32"><path
             id="path34"
             style="fill:#e5c900;fill-opacity:1;fill-rule:nonzero;stroke:none"
             d="M 0,0 -4.262,5.927 1.69,10.206 5.952,4.279 Z m -10.577,-7.604 -4.261,5.927 5.928,4.262 4.262,-5.927 z M 2.549,-28.61 c 2.936,-4.082 6.103,-6.5 9.504,-7.251 3.4,-0.751 6.551,-0.083 9.454,2.004 2.902,2.086 4.532,4.843 4.89,8.272 0.358,3.427 -0.966,7.232 -3.972,11.415 -2.97,4.131 -6.093,6.561 -9.367,7.293 -3.273,0.73 -6.41,0.017 -9.411,-2.141 -3.001,-2.157 -4.678,-4.924 -5.036,-8.303 -0.356,-3.378 0.956,-7.141 3.938,-11.289 m -7.323,-5.639 c -2.642,3.672 -4.308,7.15 -5.001,10.433 -0.501,2.424 -0.566,4.877 -0.198,7.357 0.369,2.478 1.144,4.677 2.327,6.596 1.563,2.567 3.81,4.905 6.746,7.015 5.313,3.819 10.748,5.228 16.306,4.225 5.558,-1.003 10.448,-4.44 14.669,-10.31 4.184,-5.82 5.876,-11.512 5.075,-17.074 -0.801,-5.563 -3.849,-10.248 -9.146,-14.056 -5.361,-3.854 -10.8,-5.284 -16.315,-4.288 -5.518,0.996 -10.338,4.363 -14.463,10.102" /></g><g
           transform="translate(490.0723,412.3535)"
           id="g36"><path
             id="path38"
             style="fill:#e5c900;fill-opacity:1;fill-rule:nonzero;stroke:none"
             d="m 0,0 7.004,-5.27 c -1.592,-2.513 -2.26,-4.818 -2.005,-6.915 0.256,-2.097 1.389,-4.067 3.4,-5.909 2.128,-1.951 4.143,-2.971 6.049,-3.06 1.905,-0.088 3.41,0.47 4.515,1.676 0.711,0.773 1.086,1.64 1.131,2.6 0.044,0.96 -0.316,2.159 -1.079,3.598 -0.529,0.977 -1.856,3.071 -3.981,6.28 -2.738,4.126 -4.236,7.483 -4.491,10.074 -0.357,3.644 0.649,6.76 3.024,9.351 1.528,1.667 3.43,2.793 5.706,3.378 2.276,0.585 4.651,0.441 7.126,-0.43 2.474,-0.871 4.97,-2.46 7.486,-4.767 4.109,-3.766 6.376,-7.502 6.801,-11.206 0.425,-3.705 -0.688,-7.108 -3.34,-10.211 l -6.876,5.769 c 1.259,1.941 1.76,3.707 1.506,5.296 -0.253,1.59 -1.313,3.238 -3.173,4.943 -1.92,1.761 -3.786,2.744 -5.595,2.951 -1.163,0.136 -2.136,-0.221 -2.912,-1.069 -0.71,-0.774 -0.989,-1.738 -0.841,-2.888 0.193,-1.464 1.549,-4.049 4.069,-7.756 2.519,-3.707 4.178,-6.671 4.974,-8.895 0.798,-2.225 0.987,-4.438 0.569,-6.643 -0.419,-2.206 -1.576,-4.343 -3.473,-6.412 -1.72,-1.875 -3.852,-3.154 -6.395,-3.837 -2.543,-0.682 -5.133,-0.548 -7.767,0.402 -2.635,0.951 -5.374,2.729 -8.219,5.335 -4.137,3.794 -6.44,7.663 -6.903,11.61 C -4.155,-8.059 -2.925,-4.057 0,0" /></g><g
           transform="translate(299.7695,183.2793)"
           id="g40"><path
             id="path42"
             style="fill:#e5c900;fill-opacity:1;fill-rule:nonzero;stroke:none"
             d="M 0,0 30.007,32.735 52.448,12.164 47.372,6.626 31.54,21.139 24.438,13.391 38.104,0.863 33.027,-4.675 19.362,7.852 6.61,-6.06 Z" /></g><g
           transform="translate(513.7979,160.8711)"
           id="g44"><path
             id="path46"
             style="fill:#e5c900;fill-opacity:1;fill-rule:nonzero;stroke:none"
             d="m 0,0 -29.568,33.131 6.689,5.97 13.129,-14.711 0.386,26.772 8.995,8.027 -0.958,-24.037 31.204,-8.487 -8.656,-7.726 -22.984,7.42 -0.484,-10.378 8.936,-10.01 z" /></g><g
           transform="translate(306.2749,300.9014)"
           id="g48"><path
             id="path50"
             style="fill:#243588;fill-opacity:1;fill-rule:nonzero;stroke:none"
             d="m 0,0 c -0.239,0 -0.471,0.088 -0.649,0.251 -0.425,0.39 -0.882,1.108 -1.146,1.647 -0.015,0.03 -0.029,0.061 -0.039,0.091 -5.85,15.886 -14.583,23.526 -20.877,27.138 -6.831,3.92 -12.177,4.074 -12.402,4.078 l -148.688,-0.03 c -0.173,0 -0.344,0.047 -0.492,0.136 l -9.971,6.493 c -0.374,0.221 -0.551,0.665 -0.437,1.083 0.116,0.418 0.495,0.708 0.929,0.708 l 152.739,-0.009 c 0.021,0 0.041,-10e-4 0.063,-0.002 0.082,-0.005 8.231,-0.54 9.434,-0.847 5.172,-1.32 9.844,-3.233 13.886,-5.685 C -7.557,28.929 -2.93,20.348 -0.826,14.228 1.333,7.948 1.359,2.823 1.354,2.26 1.354,2.202 1.348,2.145 1.337,2.088 1.209,1.406 1.045,0.876 0.851,0.511 0.711,0.249 0.458,0.064 0.164,0.014 0.109,0.004 0.054,0 0,0" /></g><g
           transform="translate(171.3125,301.0425)"
           id="g52"><path
             id="path54"
             style="fill:#243588;fill-opacity:1;fill-rule:nonzero;stroke:none"
             d="M 0,0 C -0.191,0 -0.378,0.057 -0.537,0.164 L -10.99,7.19 c -0.352,0.236 -0.509,0.675 -0.384,1.081 0.124,0.405 0.497,0.681 0.92,0.681 L 49.197,8.949 c 0.346,0 0.666,-0.187 0.837,-0.488 C 51.297,6.24 52.775,3.899 54.43,1.508 54.634,1.213 54.657,0.83 54.491,0.513 54.324,0.196 53.996,-0.002 53.637,-0.002 Z" /></g><g
           transform="translate(148.894,316.1108)"
           id="g56"><path
             id="path58"
             style="fill:#243588;fill-opacity:1;fill-rule:nonzero;stroke:none"
             d="M 0,0 C -0.192,0 -0.379,0.057 -0.539,0.164 L -12.998,8.54 c -0.353,0.236 -0.508,0.675 -0.385,1.08 0.124,0.405 0.498,0.682 0.921,0.682 l 78.133,-0.004 c 0.498,0 0.914,-0.381 0.959,-0.876 0.225,-2.466 0.906,-5.198 2.022,-8.119 0.114,-0.296 0.073,-0.629 -0.106,-0.89 -0.18,-0.261 -0.476,-0.417 -0.794,-0.417 z" /></g><g
           transform="translate(196.2524,284.2793)"
           id="g60"><path
             id="path62"
             style="fill:#243588;fill-opacity:1;fill-rule:nonzero;stroke:none"
             d="M 0,0 C -0.19,0 -0.378,0.056 -0.537,0.164 L -12.5,8.204 c -0.352,0.237 -0.508,0.676 -0.384,1.08 0.124,0.405 0.497,0.683 0.921,0.683 L 35.304,9.965 c 0.288,0 0.561,-0.128 0.744,-0.354 2.837,-3.456 5.388,-6.252 7.027,-7.989 0.264,-0.279 0.337,-0.689 0.184,-1.042 -0.152,-0.353 -0.5,-0.583 -0.884,-0.583 z" /></g><g
           transform="translate(236.8394,313.0513)"
           id="g64"><path
             id="path66"
             style="fill:#243588;fill-opacity:1;fill-rule:nonzero;stroke:none"
             d="m 0,0 c -0.101,0 -0.203,0.017 -0.302,0.048 -0.251,0.084 -0.457,0.266 -0.57,0.506 -2.621,5.585 -3.71,9.868 -4.127,11.923 -0.057,0.285 0.017,0.58 0.201,0.804 0.183,0.222 0.456,0.35 0.743,0.35 0.002,0 23.788,-0.161 23.788,-0.161 0.152,-0.002 0.304,-0.039 0.44,-0.111 0.622,-0.325 0.937,-0.893 0.886,-1.599 -0.024,-0.328 -0.214,-0.621 -0.503,-0.778 L 0.458,0.116 C 0.316,0.04 0.158,0 0,0" /></g><g
           transform="translate(289.3784,265.457)"
           id="g68"><path
             id="path70"
             style="fill:#243588;fill-opacity:1;fill-rule:nonzero;stroke:none"
             d="m 0,0 c -0.137,0 -0.276,0.03 -0.408,0.091 -3.606,1.689 -7.116,3.497 -10.436,5.374 -0.255,0.142 -0.431,0.395 -0.477,0.684 -0.046,0.29 0.041,0.585 0.238,0.801 L 8.558,28.578 c 0.138,0.152 0.321,0.257 0.523,0.296 0.405,0.083 0.82,0.124 1.231,0.124 2.821,-0.001 5.035,-1.926 5.855,-2.754 0.315,-0.317 0.37,-0.811 0.131,-1.19 L 0.815,0.451 C 0.634,0.162 0.322,0 0,0" /></g><g
           transform="translate(316.6187,255.2666)"
           id="g72"><path
             id="path74"
             style="fill:#243588;fill-opacity:1;fill-rule:nonzero;stroke:none"
             d="m 0,0 c -0.091,0 -0.183,0.012 -0.272,0.039 -4.953,1.457 -9.791,3.069 -14.377,4.788 -0.245,0.093 -0.441,0.28 -0.545,0.52 -0.104,0.241 -0.106,0.513 -0.005,0.754 l 8.248,19.769 c 0.104,0.25 0.307,0.443 0.562,0.535 0.106,0.038 0.217,0.058 0.328,0.058 0.152,0 0.306,-0.037 0.445,-0.11 l 0.703,-0.367 c 0.285,-0.148 0.478,-0.43 0.512,-0.751 C -3.536,17.079 -1.748,9.019 0.912,1.275 1.028,0.934 0.945,0.558 0.697,0.297 0.512,0.104 0.259,0 0,0" /></g><g
           transform="translate(249.3379,294.2793)"
           id="g76"><path
             id="path78"
             style="fill:#243588;fill-opacity:1;fill-rule:nonzero;stroke:none"
             d="m 0,0 c -0.268,0 -0.534,0.11 -0.723,0.327 -2.004,2.276 -3.883,4.639 -5.585,7.02 -0.151,0.212 -0.211,0.476 -0.164,0.732 0.046,0.256 0.194,0.484 0.41,0.628 l 28.858,19.371 c 0.128,0.086 0.274,0.14 0.427,0.157 0.207,0.024 0.412,0.036 0.61,0.036 2.254,0 4.014,-1.623 4.831,-4.453 0.107,-0.371 -0.018,-0.769 -0.318,-1.013 L 0.608,0.216 C 0.43,0.072 0.214,0 0,0" /></g><g
           transform="translate(267.1128,278.3633)"
           id="g80"><path
             id="path82"
             style="fill:#243588;fill-opacity:1;fill-rule:nonzero;stroke:none"
             d="m 0,0 c -0.196,0 -0.392,0.059 -0.561,0.18 -3.387,2.427 -6.61,5.005 -9.578,7.66 -0.217,0.193 -0.335,0.474 -0.32,0.765 0.013,0.291 0.158,0.56 0.394,0.73 l 29.309,21.378 c 0.165,0.12 0.363,0.185 0.568,0.185 2.133,-0.001 3.935,-1.916 4.946,-5.257 0.101,-0.335 0.013,-0.7 -0.233,-0.951 L 0.689,0.289 C 0.502,0.1 0.252,0 0,0" /></g><g
           transform="translate(537.1699,300.9014)"
           id="g84"><path
             id="path86"
             style="fill:#243588;fill-opacity:1;fill-rule:nonzero;stroke:none"
             d="m 0,0 c 0.238,0 0.471,0.088 0.649,0.251 0.424,0.39 0.882,1.108 1.147,1.647 0.014,0.03 0.028,0.061 0.038,0.091 5.852,15.886 14.583,23.526 20.877,27.138 6.832,3.92 12.178,4.074 12.402,4.078 L 183.8,33.175 c 0.175,0 0.345,0.047 0.493,0.136 l 9.972,6.493 c 0.372,0.221 0.55,0.665 0.436,1.083 -0.116,0.418 -0.496,0.708 -0.929,0.708 L 41.032,41.586 c -0.019,0 -0.041,-10e-4 -0.062,-0.002 -0.081,-0.005 -8.231,-0.54 -9.435,-0.847 C 26.365,39.417 21.692,37.504 17.65,35.052 7.558,28.929 2.932,20.348 0.827,14.228 -1.333,7.948 -1.358,2.823 -1.354,2.26 c 0,-0.058 0.006,-0.115 0.017,-0.172 0.129,-0.682 0.292,-1.212 0.486,-1.577 0.14,-0.262 0.393,-0.447 0.688,-0.497 C -0.108,0.004 -0.053,0 0,0" /></g><g
           transform="translate(672.1318,301.0425)"
           id="g88"><path
             id="path90"
             style="fill:#243588;fill-opacity:1;fill-rule:nonzero;stroke:none"
             d="M 0,0 C 0.192,0 0.379,0.057 0.538,0.164 L 10.991,7.19 c 0.352,0.236 0.507,0.675 0.384,1.081 -0.124,0.405 -0.497,0.681 -0.922,0.681 L -49.196,8.949 c -0.346,0 -0.666,-0.187 -0.837,-0.488 -1.264,-2.221 -2.742,-4.562 -4.398,-6.953 -0.204,-0.295 -0.225,-0.678 -0.06,-0.995 0.168,-0.317 0.497,-0.515 0.855,-0.515 z" /></g><g
           transform="translate(694.5508,316.1108)"
           id="g92"><path
             id="path94"
             style="fill:#243588;fill-opacity:1;fill-rule:nonzero;stroke:none"
             d="M 0,0 C 0.191,0 0.378,0.057 0.538,0.164 L 12.999,8.54 c 0.353,0.236 0.507,0.675 0.384,1.08 -0.123,0.405 -0.497,0.682 -0.922,0.682 l -78.132,-0.004 c -0.497,0 -0.914,-0.381 -0.959,-0.876 -0.224,-2.466 -0.906,-5.198 -2.023,-8.119 -0.112,-0.296 -0.073,-0.629 0.106,-0.89 0.182,-0.261 0.478,-0.417 0.794,-0.417 z" /></g><g
           transform="translate(647.1914,284.2793)"
           id="g96"><path
             id="path98"
             style="fill:#243588;fill-opacity:1;fill-rule:nonzero;stroke:none"
             d="m 0,0 c 0.191,0 0.38,0.056 0.538,0.164 l 11.963,8.04 c 0.353,0.237 0.509,0.676 0.385,1.08 -0.124,0.405 -0.498,0.683 -0.922,0.683 L -35.303,9.965 c -0.289,0 -0.562,-0.128 -0.745,-0.354 -2.836,-3.456 -5.387,-6.252 -7.026,-7.989 -0.264,-0.279 -0.336,-0.689 -0.185,-1.042 0.153,-0.353 0.5,-0.583 0.886,-0.583 z" /></g><g
           transform="translate(606.6055,313.0513)"
           id="g100"><path
             id="path102"
             style="fill:#243588;fill-opacity:1;fill-rule:nonzero;stroke:none"
             d="m 0,0 c 0.102,0 0.203,0.017 0.302,0.048 0.25,0.084 0.457,0.266 0.569,0.506 2.62,5.585 3.711,9.868 4.127,11.923 0.059,0.285 -0.015,0.58 -0.2,0.804 -0.184,0.222 -0.455,0.35 -0.742,0.35 -0.003,0 -23.788,-0.161 -23.788,-0.161 -0.154,-0.002 -0.304,-0.039 -0.44,-0.111 -0.623,-0.325 -0.938,-0.893 -0.886,-1.599 0.023,-0.328 0.213,-0.621 0.501,-0.778 L -0.457,0.116 C -0.316,0.04 -0.158,0 0,0" /></g><g
           transform="translate(554.0674,265.457)"
           id="g104"><path
             id="path106"
             style="fill:#243588;fill-opacity:1;fill-rule:nonzero;stroke:none"
             d="m 0,0 c 0.137,0 0.275,0.03 0.406,0.091 3.607,1.689 7.116,3.497 10.437,5.374 0.255,0.142 0.43,0.395 0.477,0.684 0.046,0.29 -0.041,0.585 -0.239,0.801 l -19.64,21.628 c -0.138,0.152 -0.321,0.257 -0.523,0.296 -0.405,0.083 -0.82,0.124 -1.231,0.124 -2.822,-0.001 -5.035,-1.926 -5.854,-2.754 -0.316,-0.317 -0.37,-0.811 -0.132,-1.19 L -0.815,0.451 C -0.637,0.162 -0.321,0 0,0" /></g><g
           transform="translate(526.8262,255.2666)"
           id="g108"><path
             id="path110"
             style="fill:#243588;fill-opacity:1;fill-rule:nonzero;stroke:none"
             d="m 0,0 c 0.09,0 0.182,0.012 0.272,0.039 4.955,1.457 9.791,3.069 14.378,4.788 0.245,0.093 0.441,0.28 0.545,0.52 0.103,0.241 0.106,0.513 0.004,0.754 L 6.95,25.87 c -0.103,0.25 -0.306,0.443 -0.56,0.535 -0.108,0.038 -0.218,0.058 -0.328,0.058 -0.153,0 -0.306,-0.037 -0.446,-0.11 L 4.913,25.986 C 4.628,25.838 4.435,25.556 4.401,25.235 3.535,17.079 1.748,9.019 -0.911,1.275 -1.027,0.934 -0.945,0.558 -0.697,0.297 -0.512,0.104 -0.259,0 0,0" /></g><g
           transform="translate(594.1074,294.2793)"
           id="g112"><path
             id="path114"
             style="fill:#243588;fill-opacity:1;fill-rule:nonzero;stroke:none"
             d="M 0,0 C 0.268,0 0.533,0.11 0.723,0.327 2.727,2.603 4.605,4.966 6.309,7.347 6.459,7.559 6.518,7.823 6.472,8.079 6.425,8.335 6.277,8.563 6.061,8.707 l -28.857,19.371 c -0.129,0.086 -0.275,0.14 -0.427,0.157 -0.207,0.024 -0.413,0.036 -0.611,0.036 -2.254,0 -4.014,-1.623 -4.831,-4.453 -0.106,-0.371 0.019,-0.769 0.319,-1.013 L -0.608,0.216 C -0.431,0.072 -0.214,0 0,0" /></g><g
           transform="translate(576.332,278.3633)"
           id="g116"><path
             id="path118"
             style="fill:#243588;fill-opacity:1;fill-rule:nonzero;stroke:none"
             d="m 0,0 c 0.195,0 0.392,0.059 0.561,0.18 3.388,2.427 6.61,5.005 9.579,7.66 0.216,0.193 0.334,0.474 0.319,0.765 -0.013,0.291 -0.158,0.56 -0.395,0.73 l -29.307,21.378 c -0.164,0.12 -0.364,0.185 -0.569,0.185 -2.133,-0.001 -3.934,-1.916 -4.946,-5.257 -0.1,-0.335 -0.013,-0.7 0.232,-0.951 L -0.689,0.289 C -0.502,0.1 -0.252,0 0,0" /></g><g
           transform="translate(408.749,362.3604)"
           id="g120"><path
             id="path122"
             style="fill:#1d1d1b;fill-opacity:1;fill-rule:nonzero;stroke:none"
             d="m 0,0 c 1.084,-1.736 -0.134,-4.895 -0.331,-6.115 -0.362,-2.254 -0.962,-4.606 -2.389,-6.456 -2.791,-3.62 -6.451,-7.404 -10.871,-8.493 -5.248,-1.296 -5.44,-3.985 -10.533,-3.738 -5.972,0.288 -18.003,4.858 -23.358,6.539 -11.636,3.653 -4.841,10.449 -8.978,9.031 -1.498,1.048 -2.079,-1.768 -2.998,-2.999 -0.919,-1.232 -3.058,1.358 -5.377,-0.74 -0.059,-0.959 1.014,-1.921 0.28,-2.998 -0.799,-1.171 -4.837,-2.309 -4.688,-3.05 0.611,-3.065 3.61,-3.143 5.708,-4.084 2.412,-1.084 0.892,-4.146 3.737,-3.398 2.677,0.703 4.572,2.874 7.815,2.718 5.166,-0.248 10.726,-4.278 14.949,-6.795 4.135,-2.466 8.346,-0.852 11.899,-3.39 4.045,-2.887 4.152,-10.568 0,-13.175 -4.658,-2.923 -10.469,-5.427 -15.636,-7.218 -5.091,-1.765 -9.938,-3.655 -14.61,-6.116 -2.508,-1.321 -5.501,-1.987 -8.494,-1.359 -2.535,0.531 -3.274,2.769 -5.353,4.152 -2.874,1.913 -4.744,2.021 -5.519,-1.094 -0.342,-1.37 1.371,-3.043 1.019,-4.417 -0.296,-1.152 -2.462,-2.194 -2.709,-3.407 -0.633,-3.129 1.069,-3.755 4.068,-4.756 2.038,-0.68 -1.019,-3.398 1.699,-4.077 3.058,-1.36 2.248,1.093 4.418,1.699 1.2,0.335 3.132,-1.373 4.16,-0.425 1.555,1.432 1.239,3.394 3.38,5.101 4.189,3.339 8.628,4.767 13.449,6.279 5.625,1.763 11.176,4.158 16.723,5.627 6.241,1.653 9.591,0.957 14.269,-2.643 1.471,-1.133 4.868,-4.749 6.456,-5.437 2.069,-0.896 7.691,-0.092 9.853,0.34 4.819,0.963 8.527,2.022 12.571,-1.359 2.943,-2.464 7.333,-10.719 2.378,-12.579 -2.234,-0.84 -4.726,-0.904 -7.134,-1.02 -2.829,-0.138 -6.989,0.967 -9.853,0.339 -13.931,-3.057 -24.802,-8.493 -25.821,-15.629 -0.693,-4.834 -9.174,-1.357 -9.514,-8.493 -0.389,-8.151 6.63,-8.973 10.533,-10.872 1.321,-0.643 6.341,-2.696 6.489,-4.758 0.093,-1.313 -2.769,-4.201 -3.772,-5.096 -1.548,-1.38 -7.361,-5.827 -9.513,-6.114 -1.766,-0.236 -5.44,1.248 -6.795,2.717 -4.077,4.416 -8.258,5.772 -13.59,5.776 -3.806,0.003 -6.321,-2.562 -6.099,-6.454 0.173,-3.023 2.091,-3.006 4.74,-4.418 4.15,-2.213 8.285,-3.34 12.578,-5.353 2.339,-1.098 3.177,-3.703 5.769,-4.16 2.884,-0.507 4.677,2.795 6.455,4.417 3.931,3.585 6.818,6.693 10.617,10.446 3.148,3.11 9.068,5.614 9.768,10.277 0.934,6.22 -5.616,7.536 -6.455,11.893 -0.936,4.869 1.985,10.213 5.436,13.25 4.329,3.813 11.779,5.929 17.327,5.438 4.49,-0.4 13.079,0.232 16.37,-3.567 2.923,-3.375 -0.326,-11.752 -1.419,-15.121 -1.094,-3.374 0.201,-9.337 2.376,-11.893 4.052,-4.752 9.52,-7.052 15.979,-5.425 4.783,1.206 8.34,4.985 12.899,7.041 2.782,1.253 4.813,2.024 6.136,-1.274 0.879,-2.193 1.819,-6.642 1.681,-8.834 -0.418,-6.719 -4.372,-5.438 -9.513,-7.814 -4.08,-1.888 -14.448,-6.39 -12.154,-11.136 3.32,-6.872 12.385,0.551 15.89,4 1.398,1.374 12.089,7.982 12.573,9.853 0.553,2.15 -0.715,6.048 -1.028,8.147 -0.422,2.822 -1.535,5.635 -1.709,8.501 -0.167,2.757 1.033,6.092 -0.321,8.494 -0.979,1.737 -3.87,3.091 -5.775,3.397 -3.358,0.539 -3.903,-1.473 -5.778,-3.48 -1.384,-1.484 -3.511,-3.632 -5.424,-4.343 -4.068,-1.511 -9.748,0.128 -11.765,4.066 -1.818,3.556 -0.341,7.877 0.209,11.56 0.365,2.444 1.347,4.732 0.672,7.147 -0.745,2.674 -1.335,4.656 -0.339,7.475 1.565,4.427 9.552,2.815 13.231,1.34 3.432,-1.374 7.746,-5.408 10.8,-7.88 4.416,-3.574 9.053,-5.728 15.041,-5.692 4.712,0.03 8.685,1.665 11.305,5.702 5.344,8.229 4.027,12.66 3.644,17.405 -0.542,6.717 3.509,4.642 6.208,9.867 1.46,2.823 0.1,4.474 -0.007,7.202 -0.149,3.704 2.648,0.895 3.993,3.662 2.811,5.796 -5.098,8.155 -10.533,5.097 -6.933,-3.9 -7.023,-14.114 -5.436,-21.065 0.757,-3.326 1.711,-5.375 2.378,-8.247 0.75,-3.221 -2.619,-6.312 -3.737,-9.092 -2.353,-5.843 -10.34,-4.59 -13.931,-2.716 -2.773,1.447 -9.2,5.582 -11.551,7.474 -6.114,4.923 -13.852,6.882 -21.066,5.515 -5.827,-1.104 -14.448,7.383 -10.87,12.841 6.454,9.854 13.842,-0.719 19.364,0.34 3.739,1.359 -4.416,6.456 3.398,8.495 3.077,0.802 7.716,-3.641 10.194,-0.341 2.589,3.45 -5.264,1.377 -1.724,5.361 1.513,1.704 5.463,1.623 7.482,2.022 2.469,0.489 3.23,2.011 5.453,2.81 1.698,6.599 -13.913,-0.595 -9.174,7.475 3.358,5.714 17.327,8.494 17.669,15.289 -3.059,1.019 -12.464,-5.671 -15.63,-7.475 -4.593,-2.617 -8.959,-1.62 -7.135,4.417 1.595,5.279 12.471,11.001 13.25,16.649 0.957,6.936 -3.639,4.214 -6.188,0.761 -2.676,-3.621 -11.108,-13.135 -15.895,-13.673 -7.383,-0.829 -2.72,8.495 1.436,12.232 3.866,3.479 7.058,13.251 6.039,16.987 -2.326,8.531 -9.16,-6.762 -10.195,-8.833 -2.746,-5.509 -5.628,-6.592 -9.511,-11.212 -5.234,-6.224 -10.221,-10.596 -9.853,-17.667 0.149,-2.887 -0.197,-3.081 1.341,-5.428 1.999,-3.054 6.525,-7.646 5.792,-11.56 -1.171,-6.266 -9.94,-9.82 -15.628,-6.116 -9.769,6.364 -8.466,22.804 -3.396,31.937 2.869,5.172 6.104,10.664 5.51,16.648 -0.199,2.012 -0.775,6.52 -0.43,8.136 0.586,2.768 5.015,2.594 4.041,6.075 -0.288,3.117 -8.896,2.407 -16.598,2.777 -1.859,0.09 -9.114,0.89 -10.871,0.34 -1.856,-0.581 -8.095,-2.334 -9.854,-3.058 -3.501,-1.441 -5.74,1.406 -8.493,-1.359 -1.659,-3.755 3.773,-3.533 7.483,-4.407 2.661,-0.628 9.847,-1.358 11.203,-3.747 0,0 2.039,-2.718 3.738,-5.436" /></g><g
           transform="translate(758.0488,346.7554)"
           id="g124"><path
             id="path126"
             style="fill:#b5100e;fill-opacity:1;fill-rule:nonzero;stroke:none"
             d="m 0,0 c -0.929,3.043 -3.687,5.088 -6.868,5.087 -1.142,0 -114.491,-0.039 -156.76,-0.1 -12.611,-0.018 -15.312,-0.026 -16.018,-0.056 l -0.001,0.008 c -17.636,-0.828 -29.937,-5.356 -38.714,-14.249 -4.365,-4.421 -7.712,-10.046 -10.455,-17.591 0.489,-2.391 0.894,-4.813 1.226,-7.258 0.449,1.563 0.902,3.015 1.364,4.381 2.686,7.951 5.955,13.696 10.284,18.082 8.141,8.247 19.724,12.454 36.455,13.241 l 0.03,0.002 c 0.407,0.01 3.545,0.025 15.834,0.042 42.268,0.061 155.614,0.101 156.756,0.101 1.676,0 3.129,-1.077 3.615,-2.679 0.488,-1.603 -0.119,-3.306 -1.51,-4.24 l -98.384,-65.977 c -0.625,-0.419 -1.352,-0.639 -2.106,-0.639 l -48.999,-0.003 -12.692,0.134 -0.463,-0.35 c -6.046,-4.564 -17.313,-11.074 -28.701,-16.582 -10.391,-5.022 -26.99,-9.085 -42.291,-10.349 -0.066,-0.006 -0.129,-0.009 -0.196,-0.015 -0.611,-1.197 -1.252,-2.373 -1.907,-3.542 0.784,0.049 1.575,0.103 2.383,0.171 15.682,1.295 32.755,5.486 43.491,10.677 11.287,5.458 22.494,11.915 28.802,16.579 l 8.977,-0.094 c 1.584,-0.017 2.578,-0.028 2.581,-0.028 l 49.015,0.004 c 1.43,0 2.812,0.42 3.998,1.218 L -2.87,-8.051 C -0.229,-6.279 0.925,-3.043 0,0" /></g><g
           transform="translate(323.9932,247.752)"
           id="g128"><path
             id="path130"
             style="fill:#b5100e;fill-opacity:1;fill-rule:nonzero;stroke:none"
             d="m 0,0 c -13.45,1.095 -30.681,4.648 -42.49,10.357 -11.388,5.508 -22.655,12.018 -28.701,16.582 l -0.463,0.35 -8.401,-0.089 c -2.514,-0.027 -4.244,-0.045 -4.276,-0.045 l -49.015,0.003 c -0.752,0 -1.48,0.221 -2.105,0.64 l -98.384,65.976 c -1.391,0.934 -1.998,2.638 -1.511,4.24 0.488,1.603 1.941,2.679 3.616,2.679 1.697,0 169.19,-0.059 172.59,-0.143 l 0.03,-10e-4 c 16.731,-0.787 28.315,-4.994 36.456,-13.242 5.985,-6.062 9.276,-14.158 11.649,-22.449 0.333,2.45 0.738,4.877 1.23,7.273 -2.35,6.467 -5.55,12.589 -10.46,17.563 -8.778,8.892 -21.08,13.42 -38.715,14.248 l -10e-4,-0.021 c -1.999,0.052 -18.777,0.117 -172.778,0.17 -3.181,0 -5.941,-2.044 -6.867,-5.088 -0.925,-3.043 0.227,-6.278 2.869,-8.05 l 98.384,-65.974 c 1.186,-0.798 2.569,-1.218 3.997,-1.218 l 49.015,-0.004 c 0.014,0 0.014,0 4.313,0.046 l 7.247,0.076 C -66.464,19.215 -55.256,12.758 -43.97,7.3 -31.154,1.103 -12.195,-2.632 1.896,-3.543 1.243,-2.375 0.611,-1.194 0,0" /></g><g
           transform="translate(407.2832,105.1738)"
           id="g132"><path
             id="path134"
             style="fill:#1d1d1b;fill-opacity:1;fill-rule:nonzero;stroke:none"
             d="m 0,0 c 0.033,-7.934 6.497,-14.379 14.439,-14.379 7.942,0 14.407,6.445 14.44,14.379 l -1.095,14.822 1.678,0.14 c 82.458,6.883 150.396,71.371 161.541,153.342 l 0.202,1.486 5.31,-0.057 48.999,0.003 c 0.754,0 1.481,0.221 2.105,0.641 l 98.385,65.975 c 1.391,0.934 1.998,2.638 1.51,4.241 -0.487,1.602 -1.94,2.678 -3.616,2.678 -1.15,0 -115.443,-0.04 -157.288,-0.101 l -1.262,-0.002 -0.366,1.207 C 163.973,313.587 101.46,364.118 29.427,370.115 l -1.681,0.14 1.133,14.83 c -0.034,7.934 -6.499,14.377 -14.44,14.377 -7.941,0 -14.405,-6.443 -14.439,-14.377 l 1.132,-14.83 -1.681,-0.14 c -72.034,-5.999 -134.546,-56.53 -155.555,-125.74 l -0.366,-1.207 -1.262,0.002 c -41.846,0.061 -156.138,0.101 -157.288,0.101 -1.675,0 -3.128,-1.076 -3.616,-2.679 -0.487,-1.602 0.12,-3.306 1.511,-4.24 l 98.384,-65.975 c 0.625,-0.42 1.353,-0.641 2.105,-0.641 l 49.015,-0.003 5.293,0.057 0.203,-1.486 C -150.979,86.335 -83.042,21.847 -0.583,14.962 l 1.676,-0.14 z m 14.439,-17.773 c -9.835,0 -17.836,8 -17.836,17.836 l 0.004,0.124 0.851,11.538 c -20.235,1.876 -39.835,7.087 -58.281,15.498 -18.42,8.4 -35.222,19.765 -49.942,33.78 -14.689,13.986 -26.852,30.18 -36.15,48.132 -9.302,17.965 -15.479,37.208 -18.369,57.223 l -0.594,-0.004 c -1.088,-0.011 -1.74,-0.019 -1.743,-0.019 l -49.015,0.004 c -1.428,0 -2.811,0.42 -3.997,1.218 l -98.384,65.974 c -2.642,1.772 -3.795,5.007 -2.869,8.05 0.926,3.044 3.686,5.088 6.866,5.088 1.14,0 113.208,-0.04 156.036,-0.1 10.594,34.053 30.856,64.013 58.654,86.708 28.062,22.911 61.851,36.747 97.818,40.076 l -0.885,11.669 c 0,9.835 8.001,17.837 17.836,17.837 9.835,0 17.837,-8.002 17.837,-17.837 l -0.004,-0.129 -0.881,-11.539 c 35.965,-3.328 69.755,-17.165 97.818,-40.076 27.797,-22.695 48.061,-52.656 58.653,-86.709 42.829,0.06 154.898,0.1 156.035,0.1 3.182,10e-4 5.942,-2.044 6.869,-5.087 0.924,-3.044 -0.229,-6.279 -2.87,-8.051 l -98.384,-65.974 c -1.187,-0.798 -2.569,-1.218 -3.998,-1.218 l -49.015,-0.004 c -0.002,0 -0.633,0.008 -1.688,0.019 l -0.65,0.006 c -2.889,-20.018 -9.065,-39.261 -18.37,-57.226 C 166.493,91.181 154.331,74.987 139.643,61.001 124.922,46.985 108.118,35.619 89.699,27.222 71.254,18.811 51.654,13.6 31.421,11.725 L 32.276,0.063 c 0,-9.836 -8.002,-17.836 -17.837,-17.836" /></g></g></g></g></svg>
